PathFileType	4	(X/Y/Z)	RBDS022static.trc
DataRate	CameraRate	NumFrames	NumMarkers	Units	OrigDataRate	OrigDataStartFrame	OrigNumFrames
150.000000	150.000000	4	48	mm	150.000000	75	150
Frame#	Time	L.Ankle			L.Ankle.Medial			L.ASIS			L.GTR			L.Heel.Bottom			L.Heel.Lateral			L.Heel.Top			L.HF			L.Iliac.Crest			L.Knee			L.Knee.Medial			L.MT1			L.MT2			L.MT5			L.PSIS			L.Shank.Bottom.Lateral			L.Shank.Bottom.Medial			L.Shank.Top.Lateral			L.Shank.Top.Medial			L.Thigh.Bottom.Lateral			L.Thigh.Bottom.Medial			L.Thigh.Top.Lateral			L.Thigh.Top.Medial			L.TT			R.Ankle			R.Ankle.Medial			R.ASIS			R.GTR			R.Heel.Bottom			R.Heel.Lateral			R.Heel.Top			R.HF			R.Iliac.Crest			R.Knee			R.Knee.Medial			R.MT1			R.MT2			R.MT5			R.PSIS			R.Shank.Bottom.Lateral			R.Shank.Bottom.Medial			R.Shank.Top.Lateral			R.Shank.Top.Medial			R.Thigh.Bottom.Lateral			R.Thigh.Bottom.Medial			R.Thigh.Top.Lateral			R.Thigh.Top.Medial			R.TT			
		X1	Y1	Z1	X2	Y2	Z2	X3	Y3	Z3	X4	Y4	Z4	X5	Y5	Z5	X6	Y6	Z6	X7	Y7	Z7	X8	Y8	Z8	X9	Y9	Z9	X10	Y10	Z10	X11	Y11	Z11	X12	Y12	Z12	X13	Y13	Z13	X14	Y14	Z14	X15	Y15	Z15	X16	Y16	Z16	X17	Y17	Z17	X18	Y18	Z18	X19	Y19	Z19	X20	Y20	Z20	X21	Y21	Z21	X22	Y22	Z22	X23	Y23	Z23	X24	Y24	Z24	X25	Y25	Z25	X26	Y26	Z26	X27	Y27	Z27	X28	Y28	Z28	X29	Y29	Z29	X30	Y30	Z30	X31	Y31	Z31	X32	Y32	Z32	X33	Y33	Z33	X34	Y34	Z34	X35	Y35	Z35	X36	Y36	Z36	X37	Y37	Z37	X38	Y38	Z38	X39	Y39	Z39	X40	Y40	Z40	X41	Y41	Z41	X42	Y42	Z42	X43	Y43	Z43	X44	Y44	Z44	X45	Y45	Z45	X46	Y46	Z46	X47	Y47	Z47	X48	Y48	Z48	

76	0.5	707.4619750976563	106.544677734375	1036.231811523438	725.93017578125	126.5738983154297	1120.92333984375	844.654052734375	1006.014770507813	1098.551025390625	764.9072875976563	903.2471313476563	1034.65087890625	636.0340576171875	38.48383331298828	1087.011474609375	666.4063110351563	60.8831787109375	1041.662963867188	643.7817993164063	84.05140686035156	1088.251953125	740.3577270507813	471.6945190429688	1039.682006835938	758.6412963867188	1076.840576171875	1049.40576171875	746.6244506835938	540.4660034179688	1043.66748046875	744.0579223632813	519.782958984375	1168.450317382813	854.3607177734375	57.88884353637695	1123.222045898438	861.6179809570313	67.99266052246094	1076.413330078125	821.2808227539063	47.04673385620117	1010.208312988281	670.97119140625	1030.22607421875	1171.915161132813	696.1358642578125	190.7548065185547	1030.05859375	658.2311401367188	192.3235015869141	1070.24072265625	689.517822265625	270.4609985351563	1021.025024414063	652.5949096679688	272.9803161621094	1060.143798828125	744.8831176757813	646.1436157226563	1031.080322265625	686.2894287109375	654.55810546875	1074.23046875	749.22021484375	755.0897216796875	1018.412292480469	695.46630859375	762.6251220703125	1062.2158203125	790.8010864257813	446.9032592773438	1091.326782226563	700.9986572265625	108.4536209106445	1415.21533203125	725.0513916015625	128.7630615234375	1330.741577148438	836.3297729492188	1006.602478027344	1336.896850585938	765.640380859375	908.582763671875	1393.52001953125	631.3192749023438	40.04669189453125	1367.385498046875	663.135986328125	60.55998611450195	1411.37451171875	638.9496459960938	83.50077056884766	1366.952026367188	750.2962646484375	473.8583068847656	1400.419799804688	767.4750366210938	1074.30517578125	1376.974731445313	757.3060302734375	535.9692993164063	1395.7490234375	755.7167358398438	519.9815063476563	1271.673828125	840.7003173828125	56.18532562255859	1320.035888671875	857.8580322265625	71.12975311279297	1374.02880859375	823.5902709960938	49.16060256958008	1435.5830078125	672.6829833984375	1030.81884765625	1257.138793945313	687.047119140625	187.9310302734375	1416.53466796875	655.6863403320313	195.1556701660156	1376.738037109375	693.6580810546875	272.2472229003906	1425.955078125	657.7796630859375	275.6236572265625	1386.082153320313	756.942626953125	636.5584106445313	1406.27001953125	697.1683959960938	641.211669921875	1366.962280273438	760.0211181640625	746.9330444335938	1413.55712890625	701.5073852539063	750.6543579101563	1378.010131835938	799.2427368164063	449.3019714355469	1358.039794921875	
77	0.5066666666666667	707.4635009765625	106.5513763427734	1036.228515625	725.9644165039063	126.5491333007813	1120.936157226563	844.6759033203125	1006.020385742188	1098.552368164063	764.9107055664063	903.25341796875	1034.656860351563	636.0358276367188	38.47667694091797	1087.0087890625	666.40380859375	60.88669967651367	1041.663696289063	643.7854614257813	84.05095672607422	1088.244506835938	740.3750610351563	471.6956176757813	1039.674438476563	758.6483154296875	1076.834716796875	1049.406494140625	746.6421508789063	540.4584350585938	1043.668090820313	744.0652465820313	519.7788696289063	1168.455322265625	854.36962890625	57.88685607910156	1123.212890625	861.6370239257813	68.00445556640625	1076.40869140625	821.2858276367188	47.04291152954102	1010.210693359375	670.982666015625	1030.219604492188	1171.913818359375	696.136962890625	190.7564392089844	1030.062133789063	658.236572265625	192.3321990966797	1070.240844726563	689.524169921875	270.461669921875	1021.01904296875	652.60546875	272.98779296875	1060.144409179688	744.9061889648438	646.1476440429688	1031.091918945313	686.3118896484375	654.5557861328125	1074.22998046875	749.2467651367188	755.083740234375	1018.421264648438	695.4871215820313	762.6305541992188	1062.208618164063	790.8123168945313	446.900146484375	1091.313598632813	700.9988403320313	108.4453506469727	1415.204223632813	725.05810546875	128.7513275146484	1330.750122070313	836.3404541015625	1006.595947265625	1336.886962890625	765.6378173828125	908.5972900390625	1393.523803710938	631.32568359375	40.04227828979492	1367.379272460938	663.133056640625	60.55722808837891	1411.367431640625	638.9500732421875	83.50740814208984	1366.9501953125	750.2848510742188	473.8600158691406	1400.429931640625	767.489990234375	1074.29443359375	1376.970825195313	757.3034057617188	535.9838256835938	1395.747192382813	755.6937866210938	519.9793090820313	1271.667846679688	840.6914672851563	56.18088150024414	1320.036743164063	857.8651733398438	71.12955474853516	1374.031372070313	823.59130859375	49.16545104980469	1435.586547851563	672.6986694335938	1030.820068359375	1257.12548828125	687.0487060546875	187.9277801513672	1416.531494140625	655.68994140625	195.1512145996094	1376.728637695313	693.6597900390625	272.2391662597656	1425.954467773438	657.7728881835938	275.6247863769531	1386.073608398438	756.9368896484375	636.559326171875	1406.254028320313	697.1717529296875	641.2088012695313	1366.968627929688	760.01806640625	746.9229125976563	1413.547607421875	701.5055541992188	750.656005859375	1378.00439453125	799.2415771484375	449.3043518066406	1358.046508789063	
78	0.5133333333333334	707.4530029296875	106.5492248535156	1036.234497070313	725.965576171875	126.5492401123047	1120.919067382813	844.6739501953125	1006.013610839844	1098.557373046875	764.932861328125	903.2601928710938	1034.650756835938	636.0413818359375	38.48701477050781	1087.002319335938	666.4080810546875	60.88340377807617	1041.66015625	643.790283203125	84.05197143554688	1088.241455078125	740.4065551757813	471.688232421875	1039.681274414063	758.662353515625	1076.849731445313	1049.39111328125	746.674560546875	540.4586791992188	1043.666625976563	744.0902099609375	519.7911376953125	1168.46875	854.3621826171875	57.88200759887695	1123.220703125	861.6244506835938	68.01039886474609	1076.449584960938	821.2882080078125	47.04713821411133	1010.208312988281	670.9900512695313	1030.222778320313	1171.909057617188	696.1466064453125	190.751953125	1030.0546875	658.2410888671875	192.3367919921875	1070.242797851563	689.5349731445313	270.4526062011719	1021.032775878906	652.6124877929688	272.9816284179688	1060.13671875	744.9281616210938	646.1453247070313	1031.089233398438	686.3505859375	654.5571899414063	1074.24072265625	749.268798828125	755.0865478515625	1018.411682128906	695.5220336914063	762.6298217773438	1062.209838867188	790.8222045898438	446.8941345214844	1091.326049804688	701.00537109375	108.442741394043	1415.20751953125	725.0478515625	128.7544708251953	1330.735473632813	836.3447265625	1006.58544921875	1336.8779296875	765.6303100585938	908.5853881835938	1393.511474609375	631.32470703125	40.03781509399414	1367.374267578125	663.1376342773438	60.55916213989258	1411.369018554688	638.9496459960938	83.50633239746094	1366.9521484375	750.2886352539063	473.8651123046875	1400.419067382813	767.5064086914063	1074.297607421875	1376.9736328125	757.3067626953125	535.9719848632813	1395.750854492188	755.6915893554688	519.9878540039063	1271.666870117188	840.6981201171875	56.17613220214844	1320.031982421875	857.864990234375	71.12652587890625	1374.026611328125	823.59130859375	49.15918731689453	1435.578002929688	672.6923217773438	1030.814453125	1257.141235351563	687.049560546875	187.9276275634766	1416.531494140625	655.6849975585938	195.1500701904297	1376.738403320313	693.646240234375	272.2712707519531	1425.958740234375	657.7689208984375	275.6231079101563	1386.079711914063	756.9313354492188	636.5620727539063	1406.252685546875	697.1539916992188	641.209716796875	1366.953735351563	760.0203247070313	746.9287719726563	1413.533447265625	701.4970092773438	750.6495361328125	1377.998657226563	799.2380981445313	449.3074645996094	1358.042114257813	
79	0.52	707.4575805664063	106.5423736572266	1036.226196289063	725.945556640625	126.5752563476563	1120.918090820313	844.6847534179688	1006.007141113281	1098.55078125	764.9556884765625	903.251220703125	1034.64697265625	636.0430908203125	38.4893684387207	1087.005981445313	666.4135131835938	60.88083648681641	1041.662475585938	643.7919921875	84.05188751220703	1088.250244140625	740.4046630859375	471.701416015625	1039.674926757813	758.663818359375	1076.846313476563	1049.401123046875	746.6875610351563	540.4564208984375	1043.673950195313	744.0953979492188	519.7825317382813	1168.45458984375	854.366943359375	57.88203430175781	1123.213134765625	861.6445922851563	68.01795196533203	1076.449462890625	821.2886352539063	47.0400505065918	1010.214965820313	670.9971313476563	1030.219482421875	1171.89892578125	696.1503295898438	190.7451782226563	1030.055419921875	658.2440795898438	192.3389434814453	1070.241333007813	689.5449829101563	270.4504089355469	1021.016418457031	652.6173095703125	272.9889526367188	1060.1357421875	744.9412841796875	646.1121826171875	1031.072143554688	686.3721923828125	654.5458984375	1074.226196289063	749.2974243164063	755.081298828125	1018.412414550781	695.5430297851563	762.6333618164063	1062.203857421875	790.8339233398438	446.8874816894531	1091.331665039063	700.9916381835938	108.4538726806641	1415.207885742188	725.06787109375	128.7474060058594	1330.74658203125	836.3450927734375	1006.582946777344	1336.876098632813	765.6223754882813	908.5828247070313	1393.514282226563	631.3232421875	40.03867721557617	1367.37109375	663.1353759765625	60.56187438964844	1411.368408203125	638.9474487304688	83.50243377685547	1366.936645507813	750.2855834960938	473.8555603027344	1400.411499023438	767.5187377929688	1074.285034179688	1376.965087890625	757.2984008789063	535.96533203125	1395.750732421875	755.6962890625	519.980224609375	1271.662353515625	840.7117309570313	56.17735290527344	1320.035766601563	857.8680419921875	71.12621307373047	1374.025146484375	823.5877075195313	49.16672134399414	1435.583740234375	672.6942749023438	1030.82177734375	1257.123413085938	687.0503540039063	187.9279479980469	1416.523315429688	655.6757202148438	195.1463317871094	1376.720825195313	693.6452026367188	272.25341796875	1425.946899414063	657.7633666992188	275.6213989257813	1386.070434570313	756.993896484375	636.5316772460938	1406.443603515625	697.147705078125	641.20947265625	1366.953125	760.0094604492188	746.9246826171875	1413.52685546875	701.48388671875	750.6544799804688	1377.9833984375	799.24609375	449.3045043945313	1358.034301757813	
